<?xml version="1.0" encoding="UTF-8"?><svg id="Layer_1" xmlns="http://www.w3.org/2000/svg" width="512" height="512" viewBox="0 0 512 512"><defs><style>.cls-1{fill:#fff;}</style></defs><path class="cls-1" d="M511.95,341.73c-6.15,23.26-26.51,34.88-61.07,34.88h-78.87c-24.61,0-36.91-7.05-36.91-21.15,0-4.94,1.54-11.41,4.61-19.4l36.47-94.18-108.96,118.6c-11.72,12.94-24.53,19.4-38.44,19.4-2.64,0-5.42-.22-8.35-.65-16.7-1.89-25.04-10.17-25.04-24.85,0-5.67,1.32-11.77,3.95-18.31l54.04-138.44L117.83,360.04c-9.08,11.05-22.41,16.57-39.98,16.57H33.26L122.01,124.81H.08l33.17-54.94H180.01c20.21,0,30.32,7.34,30.32,22.02,0,5.67-1.39,12.5-4.17,20.49l-47.23,135.17,94.47-106.17c12.01-13.66,21.23-22.53,27.68-26.6,10.69-6.68,24.53-10.03,41.52-10.03,4.83,0,9.89,1.67,15.16,5.01,8.05,5.23,12.08,13.01,12.08,23.33,0,6.4-1.61,13.59-4.83,21.58l-42.62,109.88,84.58-84.37c12.01-11.92,19.99-19.11,23.95-21.58,6.88-3.92,16.77-5.81,29.66-5.67,5.12,0,10.54,1.89,16.26,5.67,8.79,5.67,13.18,13.95,13.18,24.85,0,6.25-1.47,13.16-4.39,20.71l-52.5,137.57h98.86Z"/></svg>